<?xml version="1.0" standalone="no"?>
<!DOCTYPE svg PUBLIC "-//W3C//DTD SVG 20010904//EN"
 "http://www.w3.org/TR/2001/REC-SVG-20010904/DTD/svg10.dtd">
<svg version="1.0" xmlns="http://www.w3.org/2000/svg"
 width="560.000000pt" height="560.000000pt" viewBox="0 0 560.000000 560.000000"
 preserveAspectRatio="xMidYMid meet">
<metadata>
Created by potrace 1.11, written by Peter Selinger 2001-2013
</metadata>
<g transform="translate(0.000000,560.000000) scale(0.100000,-0.100000)"
fill="#000000" stroke="none">
<path d="M3758 4865 c-2 -2 -39 -6 -83 -10 -44 -3 -91 -8 -105 -10 -14 -3 -47
-7 -75 -10 -95 -11 -200 -26 -280 -41 -44 -8 -96 -17 -115 -20 -19 -3 -43 -7
-52 -10 -10 -3 -29 -7 -43 -10 -38 -7 -247 -61 -274 -72 -18 -6 -73 6 -234 55
-265 80 -287 81 -397 17 -44 -25 -80 -51 -81 -57 -3 -56 -36 -113 -85 -146
-92 -63 -238 -91 -509 -96 -199 -4 -408 -13 -455 -20 -14 -2 -52 -6 -85 -10
-33 -3 -67 -8 -75 -10 -8 -2 -33 -6 -55 -10 -137 -20 -317 -86 -384 -143 -27
-23 -32 -31 -26 -54 17 -66 130 -132 331 -193 116 -35 122 -36 234 -30 63 4
131 8 150 10 19 2 76 6 125 10 50 3 115 8 145 10 30 3 93 7 140 10 47 3 110 8
140 10 30 2 93 7 140 10 47 3 110 7 140 10 30 2 96 7 146 10 l91 7 89 -104
c49 -57 112 -130 139 -162 28 -33 55 -64 60 -70 6 -6 103 -119 215 -251 112
-132 207 -242 210 -245 4 -4 501 -583 622 -725 9 -11 27 -31 38 -45 12 -14 41
-47 65 -75 134 -157 442 -516 471 -549 19 -21 34 -47 34 -56 0 -15 -8 -17 -47
-14 -27 1 -113 6 -193 9 -80 3 -188 8 -240 10 -52 2 -162 7 -245 10 -82 3
-190 7 -240 10 -339 18 -581 23 -670 12 -59 -6 -134 -14 -207 -21 -24 -2 -38
0 -38 8 0 6 57 162 126 346 l127 335 0 200 c0 111 -3 228 -7 261 -19 180 -83
300 -199 375 -71 46 -109 56 -138 36 -19 -14 -29 -11 -122 30 -92 41 -110 46
-185 48 -98 2 -136 -15 -140 -61 -3 -39 -32 -77 -68 -89 -16 -5 -30 -10 -31
-10 -2 -1 3 -39 23 -160 2 -16 10 -57 15 -90 6 -33 11 -145 11 -250 l1 -190
-55 -160 c-45 -131 -107 -265 -342 -739 -157 -318 -286 -584 -286 -591 0 -24
140 -87 399 -177 133 -47 137 -46 282 28 126 65 209 156 209 230 0 64 94 121
245 150 11 2 43 8 70 14 28 5 68 12 90 15 22 3 51 8 65 10 14 3 48 7 75 10 89
8 179 17 205 20 14 2 76 7 138 10 l112 7 0 -425 0 -426 54 -30 54 -31 54 32
53 31 0 420 c0 377 1 420 16 428 9 4 18 6 21 4 2 -2 49 -6 103 -9 55 -3 159
-8 230 -12 72 -4 146 -8 165 -8 l35 -2 3 -111 3 -112 50 -31 51 -31 51 29 52
29 3 112 3 111 37 1 c60 1 184 -2 222 -6 19 -1 67 -6 105 -9 125 -12 151 -15
251 -31 55 -9 110 -18 124 -20 14 -3 39 -7 55 -10 17 -3 94 -22 172 -41 l141
-36 178 61 c98 34 180 63 182 65 2 2 -10 32 -26 67 -24 51 -57 91 -158 194
-71 72 -172 177 -224 234 -117 129 -100 109 -194 216 -44 50 -85 95 -90 100
-6 6 -38 41 -71 80 -33 38 -76 88 -96 110 -20 22 -50 56 -65 75 -16 19 -34 40
-39 46 -27 28 -285 329 -450 524 -77 91 -142 167 -145 170 -5 4 -403 478 -440
524 -8 10 -20 23 -25 30 -13 14 -355 425 -373 448 -14 18 -5 21 253 92 72 19
194 53 272 74 l141 39 0 -316 c0 -174 1 -330 1 -347 l1 -30 68 1 c37 0 72 3
77 7 7 4 10 133 10 362 l0 356 77 0 78 0 0 -95 0 -95 80 0 c69 0 80 2 81 18 1
9 1 52 1 94 l0 77 71 16 c40 9 101 23 137 31 128 29 145 33 178 39 20 4 32 13
33 23 1 20 1 92 0 109 -2 28 -184 113 -293 138 -261 59 -338 77 -360 84 -15 5
-28 7 -30 6z"/>
</g>
</svg>
